<svg width="55" height="24" viewBox="0 0 55 24" fill="none" xmlns="http://www.w3.org/2000/svg">
<path d="M31.059 23.9308C29.5405 23.9308 28.7296 23.3588 28.3257 22.8693C28.1106 22.6141 27.9517 22.3158 27.8595 21.9941C27.7674 21.6724 27.7441 21.3347 27.7912 21.0033C27.8611 20.263 27.7214 11.5384 27.612 5.74147C27.4576 5.34365 27.1885 5.00145 26.8394 4.75886C26.4904 4.51628 26.0772 4.3844 25.6532 4.38018C25.2148 4.39219 24.7885 4.52748 24.4225 4.77075C24.0565 5.01401 23.7653 5.35555 23.5819 5.75677V17.7545C23.5799 17.8602 23.5561 17.9644 23.5121 18.0604C23.4635 18.1675 22.2973 20.6606 19.7614 20.6606C17.3743 20.6606 16.287 19.1311 16.287 17.7423V9.10953C16.1048 8.80362 15.5946 8.10309 14.8505 8.10309C13.5598 8.10309 12.8248 8.87398 12.6608 10.3882C12.643 10.5583 12.5692 10.7175 12.451 10.8403C12.3328 10.9631 12.1772 11.0425 12.009 11.0657C11.8408 11.089 11.6697 11.0548 11.523 10.9686C11.3764 10.8823 11.2627 10.7491 11.2 10.5901C10.1401 7.9226 7.70141 3.47163 2.84828 1.89008C4.54596 5.9709 6.54431 13.4045 2.28643 19.7215C6.44409 19.5533 8.60037 17.9228 10.705 13.6339C10.7464 13.5395 10.8063 13.4545 10.8811 13.3841C10.9559 13.3136 11.0441 13.2591 11.1404 13.2239C11.2367 13.1887 11.339 13.1734 11.4413 13.1791C11.5436 13.1847 11.6437 13.2112 11.7355 13.2568C11.8274 13.3025 11.9091 13.3664 11.9758 13.4447C12.0425 13.523 12.0928 13.6141 12.1237 13.7125C12.1545 13.8109 12.1653 13.9145 12.1553 14.0172C12.1453 14.1199 12.1148 14.2195 12.0656 14.31C9.45984 19.6236 6.50179 21.4377 0.734517 21.2541C0.592021 21.2494 0.453713 21.2044 0.335423 21.1243C0.217132 21.0441 0.12364 20.932 0.0656484 20.8008C0.00765654 20.6696 -0.0124923 20.5246 0.00750896 20.3825C0.0275103 20.2403 0.0868522 20.1066 0.178744 19.9968C5.77291 13.2913 2.49598 4.54843 0.825628 1.10083C0.764776 0.973486 0.739999 0.83169 0.754026 0.691067C0.768054 0.550443 0.820342 0.416448 0.905131 0.30384C0.989919 0.191232 1.10392 0.104381 1.23457 0.0528526C1.36522 0.00132432 1.50747 -0.0128824 1.64562 0.0117993C7.09098 1.01518 10.1705 5.03176 11.7923 8.21016C12.1105 7.68718 12.562 7.25958 13.0998 6.97178C13.6376 6.68397 14.2421 6.54647 14.8505 6.57355C16.7517 6.57355 17.6932 8.49771 17.7296 8.58031C17.7858 8.68562 17.815 8.80337 17.8146 8.92292V17.7668C17.8146 17.9992 17.9088 19.1556 19.7705 19.1556C21.0825 19.1556 21.8478 17.9809 22.0725 17.5801V5.59464C22.0726 5.50142 22.0902 5.40907 22.1242 5.32238C22.1606 5.22143 23.0899 2.85063 25.6623 2.85063C26.4226 2.8587 27.1618 3.10436 27.7776 3.55369C28.3934 4.00302 28.8555 4.63386 29.1002 5.35909C29.1214 5.43069 29.1336 5.50468 29.1366 5.57934C29.2247 10.1007 29.413 20.679 29.2945 21.2786C29.2866 21.3891 29.3006 21.5 29.3355 21.605C29.3704 21.71 29.4257 21.807 29.498 21.8904C29.8017 22.2483 30.3818 22.4257 31.1896 22.4074C31.3959 22.4184 31.6021 22.3869 31.7959 22.3148C31.9896 22.2428 32.1667 22.1316 32.3164 21.9883C32.5848 21.6393 32.7215 21.2057 32.7021 20.7647C32.7021 20.7494 32.7021 20.731 32.7021 20.7157V4.83904C32.7013 4.73396 32.722 4.62984 32.7628 4.53313C32.8053 4.42912 33.8531 1.96962 36.3495 1.96962C38.8459 1.96962 40.0121 4.83292 40.0607 4.95529C40.0948 5.04516 40.1122 5.14053 40.1124 5.23672V18.2103C40.1124 19.3269 40.3067 20.0458 40.6621 20.266C41.4972 20.7585 44.0696 19.3116 45.4544 18.5315L45.5091 18.504C50.7601 16.1026 52.2422 14.105 52.561 12.8508C52.7645 12.0493 52.561 11.2692 51.9749 10.4647C51.0456 9.21965 45.2419 6.12692 41.8009 4.47195C41.7071 4.43129 41.6223 4.37196 41.5517 4.29752C41.4812 4.22308 41.4263 4.13506 41.3903 4.03873C41.3543 3.9424 41.338 3.83975 41.3423 3.73692C41.3467 3.63409 41.3716 3.53321 41.4155 3.4403C41.4595 3.3474 41.5216 3.26439 41.5982 3.19625C41.6748 3.1281 41.7642 3.07623 41.8612 3.04374C41.9581 3.01125 42.0606 2.9988 42.1625 3.00714C42.2643 3.01549 42.3634 3.04445 42.4539 3.0923C43.3984 3.54505 51.7319 7.59222 53.1897 9.54698C54.0674 10.7278 54.3529 11.9667 54.031 13.2179C53.4418 15.5397 50.8694 17.7147 46.1651 19.8714C43.5077 21.3673 41.3575 22.438 39.8937 21.5723C39.019 21.0553 38.5939 19.9509 38.5939 18.2073V5.40803C38.3934 4.97364 37.6129 3.50834 36.3495 3.50834C35.0861 3.50834 34.418 4.62491 34.2236 5.01035V20.6974C34.2651 21.5368 33.9895 22.3609 33.4522 23.0039C33.1661 23.3043 32.8208 23.5412 32.4385 23.6992C32.0562 23.8572 31.6453 23.933 31.2321 23.9216L31.059 23.9308Z" fill="#FCFCFC"/>
<path d="M23.0819 17.7485V5.75677V5.6479L23.1272 5.5489C23.3492 5.06327 23.7018 4.64937 24.1458 4.35433C24.5897 4.05926 25.1071 3.89496 25.6395 3.88036L25.6488 3.88011L25.6581 3.8802C26.1828 3.88542 26.6935 4.04859 27.1248 4.34827C27.556 4.64792 27.8878 5.07023 28.0781 5.5605L28.1103 5.64327L28.1119 5.73205C28.1666 8.63104 28.2289 12.2624 28.2688 15.262C28.2887 16.7616 28.3031 18.1043 28.3081 19.119C28.313 20.115 28.3095 20.8334 28.289 21.0502L28.2879 21.062L28.2862 21.0737C28.249 21.3355 28.2674 21.6024 28.3402 21.8564C28.413 22.1105 28.5384 22.3459 28.708 22.547L28.7114 22.551L28.7114 22.5511C29.0154 22.9194 29.6792 23.4276 31.0461 23.4308L31.2057 23.4223L31.2258 23.4213L31.2459 23.4218C31.5888 23.4313 31.9299 23.3684 32.2475 23.2371C32.5601 23.1079 32.8431 22.9152 33.0789 22.6708C33.5285 22.1264 33.7592 21.4309 33.7242 20.722L33.7236 20.7097V20.6974V5.01035V4.89142L33.7771 4.78522C33.8879 4.56567 34.1349 4.13312 34.5438 3.74998C34.9576 3.36211 35.557 3.00834 36.3495 3.00834C37.186 3.00834 37.8216 3.4932 38.2421 3.96103C38.6674 4.43417 38.9375 4.95931 39.0479 5.19854L39.0939 5.29823V5.40803V18.2073C39.0939 19.9041 39.5115 20.7655 40.1481 21.1418L40.1482 21.1419C40.694 21.4647 41.422 21.4628 42.4255 21.1325C43.425 20.8036 44.5864 20.1863 45.9198 19.4357L45.9379 19.4255L45.9567 19.4169C48.2868 18.3487 50.0614 17.288 51.3183 16.2248C52.5756 15.1615 53.286 14.1206 53.5463 13.0949L53.5467 13.0933C53.8253 12.0106 53.5906 10.9248 52.7889 9.84589L23.0819 17.7485ZM23.0819 17.7485C23.0807 17.7844 23.0724 17.8196 23.0576 17.852L23.0568 17.8538C23.0445 17.8809 22.769 18.4741 22.2097 19.0534C21.6538 19.6293 20.8498 20.1606 19.7614 20.1606C18.6792 20.1606 17.9421 19.8167 17.4781 19.3643C17.009 18.9069 16.787 18.3085 16.787 17.7423V9.10953V8.9719L16.7166 8.85365C16.61 8.67467 16.4056 8.37561 16.1091 8.11565C15.813 7.85596 15.3867 7.60309 14.8505 7.60309C14.1001 7.60309 13.4515 7.83101 12.9719 8.33211C12.5031 8.82202 12.2526 9.51422 12.1637 10.3344L12.1636 10.3362C12.1573 10.396 12.1314 10.4514 12.0907 10.4936C12.0501 10.5359 11.9971 10.5626 11.9405 10.5705C11.884 10.5783 11.8263 10.5668 11.7764 10.5375C11.7266 10.5082 11.6871 10.4624 11.6653 10.4069L11.6647 10.4055C10.59 7.70074 8.07578 3.06775 3.0032 1.41469L1.96872 1.07757L2.38663 2.08213C4.07162 6.13243 5.97956 13.3478 1.87182 19.442L1.31979 20.261L2.30664 20.2211C4.44948 20.1344 6.13425 19.6677 7.56037 18.6268C8.97682 17.593 10.0861 16.0301 11.1539 13.8542L11.1586 13.8445L11.163 13.8346C11.1774 13.8016 11.1982 13.7723 11.2239 13.7481C11.2496 13.7239 11.2796 13.7053 11.3122 13.6934C11.3448 13.6815 11.3793 13.6764 11.4137 13.6783C11.4481 13.6802 11.4819 13.6891 11.513 13.7046C11.5442 13.7201 11.5722 13.7419 11.5952 13.7689C11.6182 13.7959 11.6357 13.8276 11.6465 13.862C11.6573 13.8964 11.6611 13.9328 11.6576 13.9688C11.6541 14.0049 11.6434 14.0397 11.6263 14.0712L11.6213 14.0804L11.6167 14.0898C10.3345 16.7044 8.99684 18.3921 7.32434 19.4172C5.65363 20.4412 3.58268 20.8445 0.750421 20.7544C0.702696 20.7527 0.656099 20.7376 0.615925 20.7104C0.575575 20.683 0.543193 20.6444 0.522961 20.5987C0.502717 20.5529 0.49561 20.502 0.502634 20.4521C0.509657 20.4022 0.530447 20.3556 0.562181 20.3177L0.562679 20.3171C3.46925 16.8331 4.06147 12.8248 3.72413 9.27974C3.3876 5.74315 2.12468 2.63561 1.27634 0.884362C1.25527 0.839851 1.24663 0.790131 1.25156 0.740697C1.25652 0.690938 1.275 0.643859 1.30456 0.604594C1.33411 0.565359 1.37347 0.535553 1.41801 0.517986C1.46222 0.500551 1.51014 0.495703 1.5567 0.503831C6.77955 1.46692 9.75678 5.32103 11.3469 8.43741L11.7539 9.23502L12.2194 8.47009C12.4914 8.02311 12.877 7.65812 13.3357 7.41262C13.7945 7.16714 14.3098 7.04998 14.8283 7.07305L14.8394 7.07355H14.8505C15.6185 7.07355 16.2081 7.4595 16.6308 7.89444C16.8409 8.11062 17.0012 8.33078 17.1108 8.50176C17.2109 8.6579 17.2637 8.76504 17.2713 8.78048C17.2721 8.78215 17.2724 8.78275 17.2722 8.7822L17.2797 8.79922L17.2885 8.81568C17.3057 8.84796 17.3148 8.88428 17.3146 8.92134V8.92292V17.7668C17.3146 17.9372 17.347 18.4175 17.705 18.862C18.0797 19.3272 18.7304 19.6556 19.7705 19.6556C20.5866 19.6556 21.2196 19.2879 21.663 18.8904C22.1034 18.4956 22.3825 18.0496 22.5086 17.8247L22.5725 17.7108V17.5801V5.59523C22.5726 5.56426 22.5784 5.53362 22.5896 5.50496L22.5898 5.50502L22.5944 5.49226C22.5944 5.4923 22.5945 5.49213 22.5946 5.49177C22.5963 5.4873 22.6096 5.45274 22.6362 5.39442C22.665 5.33123 22.7081 5.24284 22.7669 5.13792C22.8849 4.92719 23.0629 4.65526 23.3098 4.38768C23.7988 3.85757 24.5483 3.35144 25.6596 3.35063C26.3147 3.35813 26.9517 3.57 27.4829 3.9576C28.012 4.34364 28.4103 4.88521 28.6229 5.50862C28.6307 5.53684 28.6353 5.56588 28.6368 5.59521C28.6809 7.85619 28.7498 11.626 28.7931 14.9062C28.8147 16.548 28.8298 18.0656 28.8322 19.2095C28.8334 19.7817 28.8314 20.2581 28.8254 20.6089C28.8225 20.7845 28.8186 20.9257 28.8138 21.0303C28.8096 21.1202 28.8055 21.1641 28.8043 21.1775C28.8039 21.1818 28.8037 21.183 28.804 21.1817L28.798 21.2121L28.7958 21.243C28.7832 21.4188 28.8054 21.5955 28.861 21.7628C28.9164 21.9292 29.0038 22.0832 29.1184 22.2159C29.5687 22.7447 30.3371 22.9241 31.1829 22.9076C31.4509 22.9193 31.7186 22.8771 31.9702 22.7835C32.228 22.6875 32.4635 22.5398 32.6622 22.3493L32.6896 22.3232L32.7127 22.2931C33.0508 21.8536 33.2238 21.3087 33.2021 20.7543M23.0819 17.7485L33.2021 20.7543M33.2021 20.7543V20.7543V20.7544V20.7545V20.7546V20.7547V20.7548V20.7549V20.755V20.7551V20.7552V20.7553V20.7554V20.7555V20.7556V20.7557V20.7558V20.7559V20.756V20.7561V20.7561V20.7562V20.7563V20.7564V20.7565V20.7566V20.7567V20.7568V20.7569V20.757V20.7571V20.7572V20.7573V20.7574V20.7575V20.7576V20.7577V20.7578V20.7578V20.7579V20.758V20.7581V20.7582V20.7583V20.7584V20.7585V20.7586V20.7587V20.7588V20.7589V20.759V20.7591V20.7592V20.7593V20.7593V20.7594V20.7595V20.7596V20.7597V20.7598V20.7599V20.76V20.7601V20.7602V20.7603V20.7604V20.7605V20.7606V20.7606V20.7607V20.7608V20.7609V20.761V20.7611V20.7612V20.7613V20.7614V20.7615V20.7616V20.7617V20.7618V20.7618V20.7619V20.762V20.7621V20.7622V20.7623V20.7624V20.7625V20.7626V20.7627V20.7628V20.7628V20.7629V20.763V20.7631V20.7632V20.7633V20.7634V20.7635V20.7636V20.7637V20.7638V20.7638V20.7639V20.764V20.7641V20.7642V20.7643V20.7644V20.7645V20.7646V20.7647H32.7021L33.2016 20.7427C33.2017 20.7465 33.2019 20.7504 33.2021 20.7543ZM33.2021 20.7543V20.7542V20.7541V20.754V20.754V20.7539V20.7538V20.7537V20.7536V20.7535V20.7534V20.7533V20.7532V20.7531V20.753V20.7529V20.7528V20.7527V20.7526V20.7525V20.7524V20.7523V20.7522V20.7521V20.752V20.7519V20.7518V20.7517V20.7516V20.7515V20.7514V20.7514V20.7513V20.7512V20.7511V20.751V20.7509V20.7508V20.7507V20.7506V20.7505V20.7504V20.7503V20.7502V20.7501V20.75V20.7499V20.7498V20.7497V20.7496V20.7495V20.7494V20.7493V20.7492V20.7491V20.749V20.7489V20.7488V20.7487V20.7486V20.7485V20.7484V20.7483V20.7482V20.7481V20.748V20.7479V20.7478V20.7478V20.7477V20.7476V20.7475V20.7474V20.7473V20.7472V20.7471V20.747V20.7469V20.7468V20.7467V20.7466V20.7465V20.7464V20.7463V20.7462V20.7461V20.746V20.7459V20.7458V20.7457V20.7456V20.7455V20.7454V20.7453V20.7452V20.7451V20.745V20.7449V20.7448V20.7447V20.7446V20.7445V20.7444V20.7443V20.7442V20.7441V20.744V20.7439V20.7438V20.7437V20.7436V20.7435V20.7434V20.7433V20.7432V20.7431V20.743V20.7429V20.7428V20.7427V20.7426V20.7425V20.7424V20.7423V20.7423V20.7422V20.7421V20.742V20.7419V20.7418V20.7417V20.7416V20.7415V20.7414V20.7413V20.7412V20.7411V20.741V20.7409V20.7408V20.7407V20.7406V20.7405V20.7404V20.7403V20.7402V20.7401V20.74V20.7399V20.7398V20.7397V20.7396V20.7395V20.7394V20.7393V20.7392V20.7391V20.739V20.7389V20.7388V20.7387V20.7386V20.7385V20.7384V20.7383V20.7382V20.7381V20.738V20.7379V20.7378V20.7377V20.7376V20.7375V20.7374V20.7373V20.7372V20.7371V20.737V20.7369V20.7368V20.7367V20.7366V20.7365V20.7364V20.7363V20.7362V20.7361V20.736V20.7359V20.7358V20.7357V20.7357V20.7356V20.7355V20.7354V20.7353V20.7352V20.7351V20.735V20.7349V20.7348V20.7347V20.7346V20.7345V20.7344V20.7343V20.7342V20.7341V20.734V20.7339V20.7338V20.7337V20.7336V20.7335V20.7334V20.7333V20.7332V20.7331V20.733V20.7329V20.7328V20.7327V20.7326V20.7325V20.7324V20.7323V20.7322V20.7321V20.732V20.7319V20.7318V20.7317V20.7316V20.7315V20.7314V20.7313V20.7312V20.7311V20.731V20.731V20.7309V20.7308V20.7307V20.7306V20.7305V20.7304V20.7303V20.7302V20.7301V20.73V20.7299V20.7298V20.7297V20.7296V20.7295V20.7294V20.7293V20.7292V20.7291V20.729V20.7289V20.7288V20.7287V20.7286V20.7285V20.7284V20.7283V20.7282V20.7281V20.728V20.7279V20.7278V20.7278V20.7277V20.7276V20.7275V20.7274V20.7273V20.7272V20.7271V20.727V20.7269V20.7268V20.7267V20.7266V20.7265V20.7264V20.7263V20.7262V20.7261V20.726V20.7259V20.7258V20.7257V20.7256V20.7255V20.7255V20.7254V20.7253V20.7252V20.7251V20.725V20.7249V20.7248V20.7247V20.7246V20.7245V20.7244V20.7243V20.7242V20.7241V20.724V20.7239V20.7238V20.7237V20.7236V20.7236V20.7235V20.7234V20.7233V20.7232V20.7231V20.723V20.7229V20.7228V20.7227V20.7226V20.7225V20.7224V20.7223V20.7222V20.7221V20.722V20.7219V20.7219V20.7218V20.7217V20.7216V20.7215V20.7214V20.7213V20.7212V20.7211V20.721V20.7209V20.7208V20.7207V20.7206V20.7205V20.7205V20.7204V20.7203V20.7202V20.7201V20.72V20.7199V20.7198V20.7197V20.7196V20.7195V20.7194V20.7193V20.7193V20.7192V20.7191V20.719V20.7189V20.7188V20.7187V20.7186V20.7185V20.7184V20.7183V20.7182V20.7182V20.7181V20.718V20.7179V20.7178V20.7177V20.7176V20.7175V20.7174V20.7173V20.7172V20.7171V20.7171V20.717V20.7169V20.7168V20.7167V20.7166V20.7165V20.7164V20.7163V20.7162V20.7162V20.7161V20.716V20.7159V20.7158V20.7157L33.2021 4.83904L33.202 4.83548C33.2018 4.79831 33.2091 4.76156 33.2234 4.72755L33.2235 4.72756L33.2256 4.72233L33.2259 4.72174L33.2266 4.72002L33.2292 4.71378L33.239 4.69145C33.2475 4.67243 33.2599 4.64557 33.2763 4.61202C33.309 4.54484 33.3573 4.45145 33.4219 4.34087C33.5516 4.11878 33.7439 3.83271 34.0034 3.55143C34.5217 2.98967 35.2838 2.46962 36.3495 2.46962C37.3882 2.46962 38.1766 3.06228 38.739 3.73679C39.286 4.39264 39.5661 5.0658 39.5943 5.13564C39.6062 5.16812 39.6123 5.20253 39.6124 5.23727V18.2103C39.6124 18.7923 39.6625 19.299 39.771 19.7038C39.8745 20.0896 40.0567 20.479 40.3986 20.691L40.3986 20.6911L40.4081 20.6967C40.7881 20.9208 41.2692 20.8849 41.6696 20.8021C42.0983 20.7136 42.5772 20.5394 43.0504 20.335C43.9946 19.9271 45.0015 19.3605 45.6897 18.9729L45.7257 18.9548C50.9961 16.5431 52.6674 14.4616 53.0456 12.974L53.0457 12.9738C53.295 11.9919 53.0281 11.0612 52.379 10.1703L52.3791 10.1703L52.3756 10.1656C52.0853 9.77668 51.4777 9.30713 50.7564 8.82115C50.0131 8.32032 49.0809 7.75829 48.0769 7.1874C46.068 6.04507 43.7465 4.85286 42.0177 4.02136L42.0087 4.01708L41.9997 4.01315C41.9679 3.99937 41.9389 3.97916 41.9146 3.95355C41.8903 3.92792 41.8712 3.89741 41.8587 3.86376C41.8461 3.83011 41.8404 3.79412 41.8419 3.758C41.8434 3.72189 41.8522 3.68658 41.8675 3.65419C41.8828 3.62181 41.9043 3.59314 41.9306 3.56977C41.9569 3.54641 41.9873 3.5288 42.0201 3.51782C42.0528 3.50685 42.0874 3.50267 42.1216 3.50547C42.1559 3.50828 42.1894 3.51804 42.2201 3.53428L42.2288 3.53891L42.2378 3.54318C42.7064 3.7678 45.0163 4.88817 47.3881 6.19436C48.5746 6.84777 49.7694 7.54377 50.7544 8.19461C51.7596 8.85872 52.4825 9.43547 52.7884 9.84525L33.2021 20.7543ZM16.287 17.7423V9.10953L23.5819 17.7545C23.5799 17.8602 23.5561 17.9644 23.5121 18.0604C23.4635 18.1675 22.2973 20.6606 19.7614 20.6606C17.3743 20.6606 16.287 19.1311 16.287 17.7423Z" stroke="white" stroke-opacity="0.56"/>
</svg>
