<svg width="23" height="23" viewBox="0 0 23 23" fill="none" xmlns="http://www.w3.org/2000/svg">
<path d="M22.2812 15.8108C21.8844 15.8108 21.5625 16.1328 21.5625 16.5295V21.5608H1.43752V16.5295C1.43752 16.1328 1.1155 15.8108 0.718791 15.8108C0.322085 15.8108 0 16.1328 0 16.5295V22.2795C0 22.6763 0.322025 22.9982 0.718731 22.9982H22.2812C22.678 22.9982 22.9999 22.6762 22.9999 22.2795V16.5295C23 16.1321 22.678 15.8108 22.2812 15.8108Z" fill="#A9A9A9"/>
<path d="M6.9939 6.18393L10.7853 2.44641V16.5289C10.7853 16.9256 11.1102 17.2476 11.5113 17.2476C11.9123 17.2476 12.2372 16.9256 12.2372 16.5289V2.44647L16.0286 6.18399C16.3118 6.46503 16.7718 6.46503 17.055 6.18399C17.3382 5.90295 17.3389 5.44799 17.055 5.16767L12.0245 0.20902C11.7442 -0.0691523 11.2727 -0.0662845 10.9974 0.20902L5.96754 5.16761C5.68364 5.44865 5.68435 5.90361 5.96754 6.18393C6.25074 6.46497 6.71071 6.46497 6.9939 6.18393Z" fill="#A9A9A9"/>
</svg>
